<!-- Generated by IcoMoon.io -->
<svg version="1.1" xmlns="http://www.w3.org/2000/svg" width="32" height="32" viewBox="0 0 32 32">
<title>inspection-request</title>
<path fill="#606060" d="M31.6 2.5c0.5 0.5 0.5 1.3 0 1.8l-15.5 15.5c-0.5 0.5-1.3 0.5-1.8 0l-4.7-4.7c-0.5-0.5-0.5-1.3 0-1.8s1.3-0.5 1.8 0l3.8 3.8 14.7-14.6c0.5-0.5 1.3-0.5 1.7 0z"></path>
<path fill="#606060" d="M4.3 3c-0.4 0-0.9 0.2-1.3 0.6-0.3 0.3-0.5 0.8-0.5 1.3v21.7c0 0.5 0.2 1 0.5 1.3s0.8 0.5 1.3 0.5h21.7c0.5 0 1-0.2 1.3-0.5s0.5-0.8 0.5-1.3v-10.8c0-0.7 0.6-1.2 1.2-1.2s1.2 0.6 1.2 1.2v10.9c0 1.2-0.5 2.3-1.3 3.1s-1.9 1.3-3.1 1.3h-21.5c-1.2 0-2.3-0.5-3.1-1.3-0.7-0.9-1.2-2-1.2-3.1v-21.8c0-1.2 0.5-2.3 1.3-3.1s1.9-1.2 3-1.2h17.1c0.7 0 1.2 0.6 1.2 1.2s-0.5 1.2-1.2 1.2h-17.1z"></path>
</svg>
